<svg xmlns="http://www.w3.org/2000/svg" xmlns:xlink="http://www.w3.org/1999/xlink" id="Layer_1" width="43" height="51" x="0" y="0" enable-background="new 0 0 43 51" version="1.1" viewBox="0 0 43 51" xml:space="preserve"><g><g><linearGradient id="SVGID_1_" x1="21.313" x2="21.313" y1="50.766" y2="0" gradientUnits="userSpaceOnUse"><stop offset="0" stop-color="#CCC"/><stop offset=".319" stop-color="#C7C7C7"/><stop offset="1" stop-color="#BFBFBF"/></linearGradient><path fill="url(#SVGID_1_)" d="M3.419,50.766c-1.871,0-3.4-1.531-3.4-3.402V3.402C0.019,1.531,1.548,0,3.419,0 c0,0,14.453,0,20.764,0c2.457,0,3.121,0.49,4.445,1.568c1.779,1.451,4,3.809,6.209,5.984c3.727,3.672,7.77,7.324,7.77,10.871 c0,7.213,0,28.939,0,28.939c-0.002,1.871-1.531,3.402-3.402,3.402H3.419z"/><linearGradient id="SVGID_2_" x1="21.312" x2="21.312" y1="49.914" y2=".852" gradientUnits="userSpaceOnUse"><stop offset="0" stop-color="#FFF"/><stop offset=".373" stop-color="#F8F8F8"/><stop offset=".928" stop-color="#E4E4E4"/><stop offset="1" stop-color="#E0E0E0"/></linearGradient><path fill="url(#SVGID_2_)" d="M38.921,16.238h-8.219c-1.559,0-2.834-1.275-2.834-2.836V3.162c0-1.559-1.275-2.311-2.836-2.311 H3.703c-1.559,0-2.834,1.275-2.834,2.834V47.08c0,1.559,1.275,2.834,2.834,2.834h35.219c1.559,0,2.834-1.275,2.834-2.834V18.459 C41.755,16.584,40.066,16.238,38.921,16.238z"/><g><linearGradient id="SVGID_3_" x1="21.306" x2="21.306" y1="18.224" y2="0" gradientUnits="userSpaceOnUse"><stop offset="0" stop-color="#0082C9"/><stop offset="1" stop-color="#0094D9"/></linearGradient><path fill="url(#SVGID_3_)" d="M42.593,18.224c-0.148-3.484-4.099-7.068-7.756-10.671c-2.209-2.176-4.43-4.533-6.209-5.984 C27.304,0.49,26.64,0,24.183,0C17.873,0,3.419,0,3.419,0c-1.871,0-3.4,1.531-3.4,3.402v14.821H42.593z"/><g><linearGradient id="SVGID_4_" x1="28.736" x2="34.844" y1="13.872" y2="7.764" gradientUnits="userSpaceOnUse"><stop offset="0" stop-color="#ABE0F9"/><stop offset=".883" stop-color="#6DCEF5"/><stop offset="1" stop-color="#00ADEE"/></linearGradient><path fill="url(#SVGID_4_)" d="M42.593,17.973c-0.061-1.941-0.529-3.271-1.861-4.871c-2.949-3.539-8.281-8.176-11.895-11.578 c-1.426-1.34-2.664-1.516-4.559-1.521C24.22,0,24.183,0,24.183,0c2.027,0,3.686,0.447,3.686,2.475v9.428 c0,1.561,1.275,2.836,2.834,2.836h8.219c2.018,0,3.668,1.645,3.682,3.66c0,0.008,0.002,0.016,0.002,0.023 c0-0.002,0-0.004,0-0.004c0,0.002,0,0.004,0,0.006C42.605,18.424,42.611,18.25,42.593,17.973z"/><linearGradient id="SVGID_5_" x1="29.076" x2="34.864" y1="13.532" y2="7.743" gradientUnits="userSpaceOnUse"><stop offset=".258" stop-color="#44C7F4"/><stop offset=".435" stop-color="#40C5F4"/><stop offset=".617" stop-color="#34C1F3"/><stop offset=".801" stop-color="#1FB9F1"/><stop offset=".985" stop-color="#03AEEE"/><stop offset="1" stop-color="#00ADEE"/></linearGradient><path fill="url(#SVGID_5_)" d="M42.593,17.973c-0.061-1.941-0.529-3.271-1.861-4.871c-2.949-3.539-8.281-8.176-11.895-11.578 c-1.426-1.34-2.664-1.516-4.559-1.521C24.22,0,24.183,0,24.183,0c2.027,0,4.27,0.521,4.27,2.834v9.068 c0,1.561,1.482,2.836,3.041,2.836h7.428c2.018,0,3.668,1.645,3.682,3.66c0,0.008,0.002,0.016,0.002,0.023 c0-0.002,0-0.004,0-0.004c0,0.002,0,0.004,0,0.006C42.605,18.424,42.611,18.25,42.593,17.973z"/></g><linearGradient id="SVGID_6_" x1="21.298" x2="21.298" y1="18.224" y2=".852" gradientUnits="userSpaceOnUse"><stop offset="0" stop-color="#0094D9"/><stop offset="1" stop-color="#00ADEE"/></linearGradient><path fill="url(#SVGID_6_)" d="M41.727,18.224c-0.146-1.655-1.715-1.985-2.806-1.985h-8.219c-1.559,0-2.834-1.275-2.834-2.836 V3.162c0-1.559-1.275-2.311-2.836-2.311H3.703c-1.559,0-2.834,1.275-2.834,2.834v14.538H41.727z"/></g><g><g><g><g><rect width=".512" height=".514" x="15.568" y="29.128" fill="#CCC"/><rect width=".514" height=".514" x="14.88" y="29.128" fill="#CCC"/><rect width=".518" height=".514" x="16.335" y="29.128" fill="#CCC"/><rect width=".51" height=".514" x="13.509" y="29.128" fill="#CCC"/><rect width=".514" height=".514" x="12.134" y="29.128" fill="#CCC"/><rect width=".518" height=".514" x="11.46" y="29.128" fill="#CCC"/><rect width=".516" height=".514" x="9.39" y="29.128" fill="#CCC"/><rect width=".513" height=".514" x="8.703" y="29.128" fill="#CCC"/><rect width=".516" height=".514" x="7.33" y="29.128" fill="#CCC"/><rect width=".512" height=".514" x="5.958" y="29.128" fill="#CCC"/><rect width=".516" height=".514" x="5.27" y="29.128" fill="#CCC"/><rect width=".518" height=".518" x="16.939" y="29.811" fill="#CCC"/><rect width=".511" height=".518" x="16.254" y="29.811" fill="#CCC"/><rect width=".514" height=".518" x="14.88" y="29.811" fill="#CCC"/><rect width=".51" height=".518" x="13.509" y="29.811" fill="#CCC"/><rect width=".512" height=".518" x="10.718" y="29.811" fill="#CCC"/><rect width=".516" height=".518" x="12.82" y="29.811" fill="#CCC"/><rect width=".51" height=".518" x="11.451" y="29.811" fill="#CCC"/><rect width=".514" height=".518" x="10.076" y="29.811" fill="#CCC"/><rect width=".518" height=".518" x="8.013" y="29.811" fill="#CCC"/><rect width=".518" height=".518" x="6.639" y="29.811" fill="#CCC"/><rect width=".512" height=".518" x="5.958" y="29.811" fill="#CCC"/><rect width=".51" height=".518" x="8.708" y="29.811" fill="#CCC"/><rect width=".516" height=".514" x="19.758" y="29.128" fill="#CCC"/><rect width=".521" height=".514" x="18.384" y="29.128" fill="#CCC"/><rect width=".515" height=".514" x="17.7" y="29.128" fill="#CCC"/><rect width=".512" height=".518" x="19.074" y="29.811" fill="#CCC"/><rect width=".516" height=".518" x="17.703" y="29.811" fill="#CCC"/><rect width=".516" height=".518" x="14.206" y="29.811" fill="#CCC"/></g><g><rect width=".514" height=".514" x="30.99" y="29.128" fill="#CCC"/><rect width=".516" height=".514" x="30.301" y="29.128" fill="#CCC"/><rect width=".518" height=".514" x="31.758" y="29.128" fill="#CCC"/><rect width=".513" height=".514" x="28.93" y="29.128" fill="#CCC"/><rect width=".516" height=".514" x="27.556" y="29.128" fill="#CCC"/><rect width=".517" height=".514" x="26.882" y="29.128" fill="#CCC"/><rect width=".517" height=".514" x="24.811" y="29.128" fill="#CCC"/><rect width=".512" height=".514" x="24.126" y="29.128" fill="#CCC"/><rect width=".516" height=".514" x="22.751" y="29.128" fill="#CCC"/><rect width=".512" height=".514" x="21.381" y="29.128" fill="#CCC"/><rect width=".516" height=".514" x="20.693" y="29.128" fill="#CCC"/><rect width=".517" height=".518" x="32.361" y="29.811" fill="#CCC"/><rect width=".513" height=".518" x="31.675" y="29.811" fill="#CCC"/><rect width=".516" height=".518" x="30.301" y="29.811" fill="#CCC"/><rect width=".513" height=".518" x="28.93" y="29.811" fill="#CCC"/><rect width=".514" height=".518" x="26.14" y="29.811" fill="#CCC"/><rect width=".516" height=".518" x="28.242" y="29.811" fill="#CCC"/><rect width=".513" height=".518" x="26.872" y="29.811" fill="#CCC"/><rect width=".516" height=".518" x="25.498" y="29.811" fill="#CCC"/><rect width=".517" height=".518" x="23.437" y="29.811" fill="#CCC"/><rect width=".518" height=".518" x="22.062" y="29.811" fill="#CCC"/><rect width=".512" height=".518" x="21.381" y="29.811" fill="#CCC"/><rect width=".512" height=".518" x="24.13" y="29.811" fill="#CCC"/><rect width=".516" height=".514" x="35.181" y="29.128" fill="#CCC"/><rect width=".521" height=".514" x="33.807" y="29.128" fill="#CCC"/><rect width=".514" height=".514" x="33.123" y="29.128" fill="#CCC"/><rect width=".513" height=".518" x="34.497" y="29.811" fill="#CCC"/><rect width=".516" height=".518" x="33.126" y="29.811" fill="#CCC"/><rect width=".516" height=".518" x="29.626" y="29.811" fill="#CCC"/></g></g><g><g><rect width=".51" height=".516" x="15.57" y="33.4" fill="#CCC"/><rect width=".518" height=".516" x="14.878" y="33.4" fill="#CCC"/><rect width=".518" height=".516" x="16.951" y="33.4" fill="#CCC"/><rect width=".51" height=".516" x="13.511" y="33.4" fill="#CCC"/><rect width=".516" height=".516" x="12.134" y="33.4" fill="#CCC"/><rect width=".513" height=".516" x="10.764" y="33.4" fill="#CCC"/><rect width=".516" height=".516" x="9.39" y="33.4" fill="#CCC"/><rect width=".513" height=".516" x="8.705" y="33.4" fill="#CCC"/><rect width=".515" height=".516" x="7.332" y="33.4" fill="#CCC"/><rect width=".518" height=".516" x="5.27" y="33.4" fill="#CCC"/><rect width=".515" height=".518" x="16.252" y="34.08" fill="#CCC"/><rect width=".51" height=".518" x="13.511" y="34.08" fill="#CCC"/><rect width=".516" height=".518" x="12.82" y="34.08" fill="#CCC"/><rect width=".512" height=".518" x="11.449" y="34.08" fill="#CCC"/><rect width=".518" height=".518" x="9.4" y="34.08" fill="#CCC"/><rect width=".518" height=".518" x="10.074" y="34.08" fill="#CCC"/><rect width=".516" height=".518" x="8.015" y="34.08" fill="#CCC"/><rect width=".516" height=".518" x="6.641" y="34.08" fill="#CCC"/><rect width=".512" height=".518" x="5.96" y="34.08" fill="#CCC"/><rect width=".516" height=".518" x="5.279" y="34.08" fill="#CCC"/><rect width=".512" height=".518" x="8.708" y="34.08" fill="#CCC"/><rect width=".516" height=".516" x="19.76" y="33.4" fill="#CCC"/><rect width=".519" height=".516" x="18.386" y="33.4" fill="#CCC"/><rect width=".517" height=".516" x="17.7" y="33.4" fill="#CCC"/><rect width=".516" height=".518" x="19.767" y="34.08" fill="#CCC"/><rect width=".512" height=".518" x="19.074" y="34.08" fill="#CCC"/><rect width=".518" height=".518" x="17.703" y="34.08" fill="#CCC"/><rect width=".516" height=".518" x="14.206" y="34.08" fill="#CCC"/><rect width=".514" height=".518" x="15.574" y="34.08" fill="#CCC"/></g><g><rect width=".512" height=".516" x="30.992" y="33.4" fill="#CCC"/><rect width=".518" height=".516" x="30.301" y="33.4" fill="#CCC"/><rect width=".518" height=".516" x="32.373" y="33.4" fill="#CCC"/><rect width=".513" height=".516" x="28.932" y="33.4" fill="#CCC"/><rect width=".516" height=".516" x="27.558" y="33.4" fill="#CCC"/><rect width=".512" height=".516" x="26.187" y="33.4" fill="#CCC"/><rect width=".516" height=".516" x="24.812" y="33.4" fill="#CCC"/><rect width=".512" height=".516" x="24.128" y="33.4" fill="#CCC"/><rect width=".516" height=".516" x="22.753" y="33.4" fill="#CCC"/><rect width=".518" height=".516" x="20.693" y="33.4" fill="#CCC"/><rect width=".514" height=".518" x="31.675" y="34.08" fill="#CCC"/><rect width=".513" height=".518" x="28.932" y="34.08" fill="#CCC"/><rect width=".516" height=".518" x="28.243" y="34.08" fill="#CCC"/><rect width=".513" height=".518" x="26.872" y="34.08" fill="#CCC"/><rect width=".518" height=".518" x="24.823" y="34.08" fill="#CCC"/><rect width=".518" height=".518" x="25.498" y="34.08" fill="#CCC"/><rect width=".516" height=".518" x="23.439" y="34.08" fill="#CCC"/><rect width=".514" height=".518" x="22.064" y="34.08" fill="#CCC"/><rect width=".513" height=".518" x="21.382" y="34.08" fill="#CCC"/><rect width=".516" height=".518" x="20.702" y="34.08" fill="#CCC"/><rect width=".513" height=".518" x="24.131" y="34.08" fill="#CCC"/><rect width=".514" height=".516" x="35.183" y="33.4" fill="#CCC"/><rect width=".517" height=".516" x="33.809" y="33.4" fill="#CCC"/><rect width=".516" height=".516" x="33.123" y="33.4" fill="#CCC"/><rect width=".516" height=".518" x="35.19" y="34.08" fill="#CCC"/><rect width=".51" height=".518" x="34.498" y="34.08" fill="#CCC"/><rect width=".516" height=".518" x="33.126" y="34.08" fill="#CCC"/><rect width=".518" height=".518" x="29.626" y="34.08" fill="#CCC"/><rect width=".515" height=".518" x="30.995" y="34.08" fill="#CCC"/></g></g><g><g><rect width=".51" height=".514" x="15.57" y="37.669" fill="#CCC"/><rect width=".516" height=".514" x="14.878" y="37.669" fill="#CCC"/><rect width=".516" height=".514" x="16.951" y="37.669" fill="#CCC"/><rect width=".512" height=".514" x="13.507" y="37.669" fill="#CCC"/><rect width=".518" height=".514" x="12.132" y="37.669" fill="#CCC"/><rect width=".515" height=".514" x="10.761" y="37.669" fill="#CCC"/><rect width=".516" height=".514" x="9.389" y="37.669" fill="#CCC"/><rect width=".513" height=".514" x="8.703" y="37.669" fill="#CCC"/><rect width=".518" height=".514" x="7.329" y="37.669" fill="#CCC"/><rect width=".514" height=".514" x="5.958" y="37.669" fill="#CCC"/><rect width=".516" height=".514" x="5.27" y="37.669" fill="#CCC"/><rect width=".516" height=".514" x="16.939" y="38.355" fill="#CCC"/><rect width=".512" height=".514" x="16.253" y="38.355" fill="#CCC"/><rect width=".516" height=".514" x="14.878" y="38.355" fill="#CCC"/><rect width=".512" height=".514" x="13.507" y="38.355" fill="#CCC"/><rect width=".516" height=".514" x="12.82" y="38.355" fill="#CCC"/><rect width=".512" height=".514" x="11.449" y="38.355" fill="#CCC"/><rect width=".511" height=".514" x="10.772" y="38.355" fill="#CCC"/><rect width=".516" height=".514" x="10.074" y="38.355" fill="#CCC"/><rect width=".516" height=".514" x="8.015" y="38.355" fill="#CCC"/><rect width=".516" height=".514" x="6.64" y="38.355" fill="#CCC"/><rect width=".514" height=".514" x="5.958" y="38.355" fill="#CCC"/><rect width=".518" height=".514" x="5.277" y="38.355" fill="#CCC"/><rect width=".514" height=".514" x="8.707" y="38.355" fill="#CCC"/><rect width=".517" height=".514" x="19.758" y="37.669" fill="#CCC"/><rect width=".52" height=".514" x="18.384" y="37.669" fill="#CCC"/><rect width=".516" height=".514" x="17.699" y="37.669" fill="#CCC"/><rect width=".518" height=".514" x="19.765" y="38.355" fill="#CCC"/><rect width=".512" height=".514" x="19.074" y="38.355" fill="#CCC"/><rect width=".516" height=".514" x="17.703" y="38.355" fill="#CCC"/><rect width=".515" height=".514" x="14.205" y="38.355" fill="#CCC"/></g><g><rect width=".513" height=".514" x="30.991" y="37.669" fill="#CCC"/><rect width=".515" height=".514" x="30.301" y="37.669" fill="#CCC"/><rect width=".515" height=".514" x="32.373" y="37.669" fill="#CCC"/><rect width=".513" height=".514" x="28.93" y="37.669" fill="#CCC"/><rect width=".518" height=".514" x="27.556" y="37.669" fill="#CCC"/><rect width=".514" height=".514" x="26.185" y="37.669" fill="#CCC"/><rect width=".516" height=".514" x="24.812" y="37.669" fill="#CCC"/><rect width=".512" height=".514" x="24.126" y="37.669" fill="#CCC"/><rect width=".518" height=".514" x="22.751" y="37.669" fill="#CCC"/><rect width=".515" height=".514" x="21.38" y="37.669" fill="#CCC"/><rect width=".516" height=".514" x="20.693" y="37.669" fill="#CCC"/><rect width=".518" height=".514" x="32.36" y="38.355" fill="#CCC"/><rect width=".512" height=".514" x="31.675" y="38.355" fill="#CCC"/><rect width=".515" height=".514" x="30.301" y="38.355" fill="#CCC"/><rect width=".513" height=".514" x="28.93" y="38.355" fill="#CCC"/><rect width=".516" height=".514" x="28.242" y="38.355" fill="#CCC"/><rect width=".513" height=".514" x="26.871" y="38.355" fill="#CCC"/><rect width=".513" height=".514" x="26.193" y="38.355" fill="#CCC"/><rect width=".516" height=".514" x="25.498" y="38.355" fill="#CCC"/><rect width=".516" height=".514" x="23.438" y="38.355" fill="#CCC"/><rect width=".516" height=".514" x="22.064" y="38.355" fill="#CCC"/><rect width=".515" height=".514" x="21.38" y="38.355" fill="#CCC"/><rect width=".517" height=".514" x="20.7" y="38.355" fill="#CCC"/><rect width=".515" height=".514" x="24.129" y="38.355" fill="#CCC"/><rect width=".516" height=".514" x="35.181" y="37.669" fill="#CCC"/><rect width=".519" height=".514" x="33.807" y="37.669" fill="#CCC"/><rect width=".514" height=".514" x="33.123" y="37.669" fill="#CCC"/><rect width=".516" height=".514" x="35.189" y="38.355" fill="#CCC"/><rect width=".511" height=".514" x="34.497" y="38.355" fill="#CCC"/><rect width=".514" height=".514" x="33.126" y="38.355" fill="#CCC"/><rect width=".516" height=".514" x="29.626" y="38.355" fill="#CCC"/></g></g><g><g><rect width=".512" height=".514" x="15.568" y="42.631" fill="#CCC"/><rect width=".514" height=".514" x="14.88" y="42.631" fill="#CCC"/><rect width=".518" height=".514" x="16.335" y="42.631" fill="#CCC"/><rect width=".51" height=".514" x="13.509" y="42.631" fill="#CCC"/><rect width=".514" height=".514" x="12.134" y="42.631" fill="#CCC"/><rect width=".518" height=".514" x="11.46" y="42.631" fill="#CCC"/><rect width=".516" height=".514" x="9.39" y="42.631" fill="#CCC"/><rect width=".513" height=".514" x="8.703" y="42.631" fill="#CCC"/><rect width=".516" height=".514" x="7.33" y="42.631" fill="#CCC"/><rect width=".512" height=".514" x="5.958" y="42.631" fill="#CCC"/><rect width=".516" height=".514" x="5.27" y="42.631" fill="#CCC"/><rect width=".518" height=".518" x="16.939" y="41.941" fill="#CCC"/><rect width=".511" height=".518" x="16.254" y="41.941" fill="#CCC"/><rect width=".514" height=".518" x="14.88" y="41.941" fill="#CCC"/><rect width=".51" height=".518" x="13.509" y="41.941" fill="#CCC"/><rect width=".512" height=".518" x="10.718" y="41.941" fill="#CCC"/><rect width=".516" height=".518" x="12.82" y="41.941" fill="#CCC"/><rect width=".51" height=".518" x="11.451" y="41.941" fill="#CCC"/><rect width=".514" height=".518" x="10.076" y="41.941" fill="#CCC"/><rect width=".518" height=".518" x="8.013" y="41.941" fill="#CCC"/><rect width=".518" height=".518" x="6.639" y="41.941" fill="#CCC"/><rect width=".512" height=".518" x="5.958" y="41.941" fill="#CCC"/><rect width=".51" height=".518" x="8.708" y="41.941" fill="#CCC"/><rect width=".516" height=".514" x="19.758" y="42.631" fill="#CCC"/><rect width=".521" height=".514" x="18.384" y="42.631" fill="#CCC"/><rect width=".515" height=".514" x="17.7" y="42.631" fill="#CCC"/><rect width=".512" height=".518" x="19.074" y="41.941" fill="#CCC"/><rect width=".516" height=".518" x="17.703" y="41.941" fill="#CCC"/><rect width=".516" height=".518" x="14.206" y="41.941" fill="#CCC"/></g><g><rect width=".512" height=".514" x="24.126" y="42.631" fill="#CCC"/><rect width=".516" height=".514" x="22.751" y="42.631" fill="#CCC"/><rect width=".512" height=".514" x="21.381" y="42.631" fill="#CCC"/><rect width=".516" height=".514" x="20.693" y="42.631" fill="#CCC"/><rect width=".517" height=".518" x="23.437" y="41.941" fill="#CCC"/><rect width=".518" height=".518" x="22.062" y="41.941" fill="#CCC"/><rect width=".512" height=".518" x="21.381" y="41.941" fill="#CCC"/><rect width=".512" height=".518" x="24.13" y="41.941" fill="#CCC"/></g></g></g><g><rect width=".691" height=".696" x="19.229" y="24.399" fill="gray"/><rect width=".701" height=".696" x="18.294" y="24.399" fill="gray"/><rect width=".701" height=".696" x="21.101" y="24.399" fill="gray"/><rect width=".691" height=".696" x="16.439" y="24.399" fill="gray"/><rect width=".697" height=".696" x="14.576" y="24.399" fill="gray"/><rect width=".691" height=".696" x="12.718" y="24.399" fill="gray"/><rect width=".697" height=".696" x="10.855" y="24.399" fill="gray"/><rect width=".694" height=".696" x="9.925" y="24.399" fill="gray"/><rect width=".695" height=".696" x="8.066" y="24.399" fill="gray"/><rect width=".693" height=".696" x="6.207" y="24.399" fill="gray"/><rect width=".702" height=".696" x="5.27" y="24.399" fill="gray"/><rect width=".698" height=".695" x="21.086" y="23.47" fill="gray"/><rect width=".694" height=".695" x="20.157" y="23.47" fill="gray"/><rect width=".701" height=".695" x="18.294" y="23.47" fill="gray"/><rect width=".691" height=".695" x="16.439" y="23.47" fill="gray"/><rect width=".697" height=".695" x="15.503" y="23.47" fill="gray"/><rect width=".691" height=".695" x="13.646" y="23.47" fill="gray"/><rect width=".692" height=".695" x="12.727" y="23.47" fill="gray"/><rect width=".698" height=".695" x="11.784" y="23.47" fill="gray"/><rect width=".695" height=".695" x="8.994" y="23.47" fill="gray"/><rect width=".699" height=".695" x="7.128" y="23.47" fill="gray"/><rect width=".693" height=".695" x="6.207" y="23.47" fill="gray"/><rect width=".698" height=".695" x="5.282" y="23.47" fill="gray"/><rect width=".692" height=".695" x="9.932" y="23.47" fill="gray"/><rect width=".699" height=".696" x="24.908" y="24.399" fill="gray"/><rect width=".703" height=".696" x="23.045" y="24.399" fill="gray"/><rect width=".7" height=".696" x="22.116" y="24.399" fill="gray"/><rect width=".697" height=".695" x="24.919" y="23.47" fill="gray"/><rect width=".693" height=".695" x="23.978" y="23.47" fill="gray"/><rect width=".7" height=".695" x="22.121" y="23.47" fill="gray"/><rect width=".701" height=".695" x="17.38" y="23.47" fill="gray"/></g></g></g><g><linearGradient id="SVGID_7_" x1="6.651" x2="6.651" y1="13.529" y2="5.608" gradientUnits="userSpaceOnUse"><stop offset="0" stop-color="#E0E0E0"/><stop offset=".288" stop-color="#F0F0F0"/><stop offset=".629" stop-color="#FBFBFB"/><stop offset="1" stop-color="#FFF"/></linearGradient><path fill="url(#SVGID_7_)" d="M3.317,6.664c0-0.803,0.397-1.056,1.002-1.056h2.088c1.868,0,3.579,0.857,3.579,3.96 c0,2.509-1.325,3.961-3.611,3.961H4.319c-0.604,0-1.002-0.253-1.002-1.056V6.664z M5.029,12.077h1.44 c1.367,0,1.806-1.287,1.806-2.509c0-1.562-0.564-2.508-1.816-2.508h-1.43V12.077z"/><linearGradient id="SVGID_8_" x1="14.445" x2="14.445" y1="13.717" y2="5.421" gradientUnits="userSpaceOnUse"><stop offset="0" stop-color="#E0E0E0"/><stop offset=".288" stop-color="#F0F0F0"/><stop offset=".629" stop-color="#FBFBFB"/><stop offset="1" stop-color="#FFF"/></linearGradient><path fill="url(#SVGID_8_)" d="M14.445,5.421c2.463,0,3.799,1.728,3.799,4.049c0,2.233-1.231,4.247-3.799,4.247 c-2.693,0-3.799-1.849-3.799-4.247C10.646,7.148,11.982,5.421,14.445,5.421z M14.445,12.264c1.555,0,2.088-1.275,2.088-2.794 s-0.689-2.597-2.088-2.597s-2.088,1.078-2.088,2.597S12.837,12.264,14.445,12.264z"/><linearGradient id="SVGID_9_" x1="22.353" x2="22.353" y1="13.717" y2="5.421" gradientUnits="userSpaceOnUse"><stop offset="0" stop-color="#E0E0E0"/><stop offset=".288" stop-color="#F0F0F0"/><stop offset=".629" stop-color="#FBFBFB"/><stop offset="1" stop-color="#FFF"/></linearGradient><path fill="url(#SVGID_9_)" d="M22.671,5.421c1.962,0,3.037,1.299,3.037,2.068c0,0.506-0.261,0.814-0.772,0.814 c-0.991,0-0.699-1.431-2.265-1.431c-1.075,0-1.963,0.979-1.963,2.695c0,1.441,0.543,2.695,2.025,2.695 c1.347,0,1.314-1.518,2.14-1.518c0.417,0,0.835,0.253,0.835,0.693c0,1.144-1.314,2.277-2.975,2.277 c-2.348,0-3.736-1.42-3.736-4.148C18.998,7.335,20.25,5.421,22.671,5.421z"/></g></g></svg>