<svg xmlns="http://www.w3.org/2000/svg" xmlns:xlink="http://www.w3.org/1999/xlink" id="Layer_1" width="43" height="51" x="0" y="0" enable-background="new 0 0 43 51" version="1.1" viewBox="0 0 43 51" xml:space="preserve"><g><g><linearGradient id="SVGID_1_" x1="21.294" x2="21.294" y1="50.766" y2="0" gradientUnits="userSpaceOnUse"><stop offset="0" stop-color="#CCC"/><stop offset=".319" stop-color="#C7C7C7"/><stop offset="1" stop-color="#BFBFBF"/></linearGradient><path fill="url(#SVGID_1_)" d="M3.401,50.766C1.53,50.766,0,49.234,0,47.363V3.402C0,1.531,1.53,0,3.401,0c0,0,14.453,0,20.763,0 c2.458,0,3.122,0.49,4.446,1.568c1.779,1.451,3.999,3.809,6.208,5.984c3.728,3.672,7.77,7.324,7.77,10.871 c0,7.213,0,28.939,0,28.939c-0.001,1.871-1.531,3.402-3.402,3.402H3.401z"/><linearGradient id="SVGID_2_" x1="21.293" x2="21.293" y1="49.914" y2=".852" gradientUnits="userSpaceOnUse"><stop offset="0" stop-color="#FFF"/><stop offset=".373" stop-color="#F8F8F8"/><stop offset=".928" stop-color="#E4E4E4"/><stop offset="1" stop-color="#E0E0E0"/></linearGradient><path fill="url(#SVGID_2_)" d="M38.902,16.238h-8.219c-1.559,0-2.834-1.275-2.834-2.836V3.162c0-1.559-1.275-2.311-2.835-2.311 H3.685c-1.559,0-2.834,1.275-2.834,2.834V47.08c0,1.559,1.275,2.834,2.834,2.834h35.218c1.559,0,2.834-1.275,2.834-2.834V18.459 C41.736,16.584,40.047,16.238,38.902,16.238z"/><g><path fill="#606060" d="M42.574,18.224c-0.148-3.484-4.098-7.068-7.756-10.671C32.609,5.377,30.39,3.02,28.61,1.568 C27.286,0.49,26.622,0,24.164,0C17.854,0,3.401,0,3.401,0C1.53,0,0,1.531,0,3.402v14.821H42.574z"/><g><linearGradient id="SVGID_3_" x1="28.717" x2="34.825" y1="13.871" y2="7.763" gradientUnits="userSpaceOnUse"><stop offset="0" stop-color="#929497"/><stop offset=".883" stop-color="#6D6E70"/><stop offset="1" stop-color="#404041"/></linearGradient><path fill="url(#SVGID_3_)" d="M42.574,17.973c-0.061-1.941-0.529-3.271-1.861-4.871c-2.948-3.539-8.281-8.176-11.894-11.578 c-1.426-1.34-2.665-1.516-4.56-1.521C24.202,0,24.164,0,24.164,0c2.027,0,3.686,0.447,3.686,2.475v9.428 c0,1.561,1.275,2.836,2.834,2.836h8.219c2.019,0,3.669,1.645,3.683,3.66c0,0.008,0.002,0.016,0.002,0.023 c0-0.002,0-0.004,0-0.004c0,0.002,0,0.004,0,0.006C42.587,18.424,42.593,18.25,42.574,17.973z"/><linearGradient id="SVGID_4_" x1="29.057" x2="34.845" y1="13.531" y2="7.742" gradientUnits="userSpaceOnUse"><stop offset=".258" stop-color="#A7A8AD"/><stop offset=".477" stop-color="#A3A4A9"/><stop offset=".701" stop-color="#98999D"/><stop offset=".927" stop-color="#858688"/><stop offset="1" stop-color="#7E7E80"/></linearGradient><path fill="url(#SVGID_4_)" d="M42.574,17.973c-0.061-1.941-0.529-3.271-1.861-4.871c-2.948-3.539-8.281-8.176-11.894-11.578 c-1.426-1.34-2.665-1.516-4.56-1.521C24.202,0,24.164,0,24.164,0c2.027,0,4.27,0.521,4.27,2.834v9.068 c0,1.561,1.483,2.836,3.042,2.836h7.427c2.019,0,3.669,1.645,3.683,3.66c0,0.008,0.002,0.016,0.002,0.023 c0-0.002,0-0.004,0-0.004c0,0.002,0,0.004,0,0.006C42.587,18.424,42.593,18.25,42.574,17.973z"/></g><linearGradient id="SVGID_5_" x1="21.279" x2="21.279" y1="18.224" y2=".852" gradientUnits="userSpaceOnUse"><stop offset="0" stop-color="#616161"/><stop offset=".2" stop-color="#696969"/><stop offset=".505" stop-color="#7E7E7E"/><stop offset=".875" stop-color="#A0A0A0"/><stop offset="1" stop-color="#ADADAD"/></linearGradient><path fill="url(#SVGID_5_)" d="M41.709,18.224c-0.146-1.655-1.715-1.985-2.807-1.985h-8.219c-1.559,0-2.834-1.275-2.834-2.836 V3.162c0-1.559-1.275-2.311-2.835-2.311H3.685c-1.559,0-2.834,1.275-2.834,2.834v14.538H41.709z"/></g></g></g><linearGradient id="SVGID_6_" x1="6" x2="38" y1="26" y2="26" gradientUnits="userSpaceOnUse"><stop offset="0" stop-color="#CCC"/><stop offset=".319" stop-color="#C7C7C7"/><stop offset="1" stop-color="#BFBFBF"/></linearGradient><rect width="32" height="2" x="6" y="25" fill="url(#SVGID_6_)"/><linearGradient id="SVGID_7_" x1="6" x2="38" y1="32" y2="32" gradientUnits="userSpaceOnUse"><stop offset="0" stop-color="#CCC"/><stop offset=".319" stop-color="#C7C7C7"/><stop offset="1" stop-color="#BFBFBF"/></linearGradient><rect width="32" height="2" x="6" y="31" fill="url(#SVGID_7_)"/><linearGradient id="SVGID_8_" x1="6" x2="38" y1="38" y2="38" gradientUnits="userSpaceOnUse"><stop offset="0" stop-color="#CCC"/><stop offset=".319" stop-color="#C7C7C7"/><stop offset="1" stop-color="#BFBFBF"/></linearGradient><rect width="32" height="2" x="6" y="37" fill="url(#SVGID_8_)"/></svg>