<svg xmlns="http://www.w3.org/2000/svg" xmlns:xlink="http://www.w3.org/1999/xlink" id="Layer_1" width="43" height="51" x="0" y="0" enable-background="new 0 0 43 51" version="1.1" viewBox="0 0 43 51" xml:space="preserve"><g><g><linearGradient id="SVGID_1_" x1="21.5" x2="21.5" y1="50.766" y2="0" gradientUnits="userSpaceOnUse"><stop offset="0" stop-color="#CCC"/><stop offset=".319" stop-color="#C7C7C7"/><stop offset="1" stop-color="#BFBFBF"/></linearGradient><path fill="url(#SVGID_1_)" d="M3.607,50.766c-1.871,0-3.401-1.531-3.401-3.402V3.402C0.206,1.531,1.736,0,3.607,0 c0,0,14.453,0,20.763,0c2.458,0,3.122,0.49,4.446,1.568c1.779,1.451,3.999,3.809,6.208,5.984c3.728,3.672,7.77,7.324,7.77,10.871 c0,7.213,0,28.939,0,28.939c-0.001,1.871-1.531,3.402-3.402,3.402H3.607z"/><linearGradient id="SVGID_2_" x1="21.5" x2="21.5" y1="49.914" y2=".852" gradientUnits="userSpaceOnUse"><stop offset="0" stop-color="#FFF"/><stop offset=".373" stop-color="#F8F8F8"/><stop offset=".928" stop-color="#E4E4E4"/><stop offset="1" stop-color="#E0E0E0"/></linearGradient><path fill="url(#SVGID_2_)" d="M39.108,16.238H30.89c-1.559,0-2.834-1.275-2.834-2.836V3.162c0-1.559-1.275-2.311-2.835-2.311 H3.891c-1.559,0-2.834,1.275-2.834,2.834V47.08c0,1.559,1.275,2.834,2.834,2.834h35.218c1.559,0,2.834-1.275,2.834-2.834V18.459 C41.942,16.584,40.253,16.238,39.108,16.238z"/><g><linearGradient id="SVGID_3_" x1="21.493" x2="21.493" y1="18.224" y2="0" gradientUnits="userSpaceOnUse"><stop offset="0" stop-color="#EE4223"/><stop offset="1" stop-color="#F05D22"/></linearGradient><path fill="url(#SVGID_3_)" d="M42.78,18.224c-0.148-3.484-4.098-7.068-7.756-10.671c-2.209-2.176-4.429-4.533-6.208-5.984 C27.492,0.49,26.828,0,24.37,0C18.061,0,3.607,0,3.607,0C1.736,0,0.206,1.531,0.206,3.402v14.821H42.78z"/><g><linearGradient id="SVGID_4_" x1="28.923" x2="35.031" y1="13.871" y2="7.763" gradientUnits="userSpaceOnUse"><stop offset="0" stop-color="#FCB641"/><stop offset=".883" stop-color="#F6921E"/><stop offset="1" stop-color="#F27021"/></linearGradient><path fill="url(#SVGID_4_)" d="M42.78,17.973c-0.061-1.941-0.529-3.271-1.861-4.871c-2.948-3.539-8.281-8.176-11.894-11.578 c-1.426-1.34-2.665-1.516-4.56-1.521C24.408,0,24.37,0,24.37,0c2.027,0,3.686,0.447,3.686,2.475v9.428 c0,1.561,1.275,2.836,2.834,2.836h8.219c2.019,0,3.669,1.645,3.683,3.66c0,0.008,0.002,0.016,0.002,0.023 c0-0.002,0-0.004,0-0.004c0,0.002,0,0.004,0,0.006C42.793,18.424,42.799,18.25,42.78,17.973z"/><linearGradient id="SVGID_5_" x1="29.263" x2="35.052" y1="13.531" y2="7.742" gradientUnits="userSpaceOnUse"><stop offset=".258" stop-color="#F7971D"/><stop offset=".537" stop-color="#F6931D"/><stop offset=".822" stop-color="#F5871F"/><stop offset="1" stop-color="#F37B20"/></linearGradient><path fill="url(#SVGID_5_)" d="M42.78,17.973c-0.061-1.941-0.529-3.271-1.861-4.871c-2.948-3.539-8.281-8.176-11.894-11.578 c-1.426-1.34-2.665-1.516-4.56-1.521C24.408,0,24.37,0,24.37,0c2.027,0,4.27,0.521,4.27,2.834v9.068 c0,1.561,1.483,2.836,3.042,2.836h7.427c2.019,0,3.669,1.645,3.683,3.66c0,0.008,0.002,0.016,0.002,0.023 c0-0.002,0-0.004,0-0.004c0,0.002,0,0.004,0,0.006C42.793,18.424,42.799,18.25,42.78,17.973z"/></g><linearGradient id="SVGID_6_" x1="21.486" x2="21.486" y1="18.224" y2=".852" gradientUnits="userSpaceOnUse"><stop offset="0" stop-color="#F16622"/><stop offset="1" stop-color="#F37B20"/></linearGradient><path fill="url(#SVGID_6_)" d="M41.915,18.224c-0.146-1.655-1.715-1.985-2.807-1.985H30.89c-1.559,0-2.834-1.275-2.834-2.836 V3.162c0-1.559-1.275-2.311-2.835-2.311H3.891c-1.559,0-2.834,1.275-2.834,2.834v14.538H41.915z"/></g><g><rect width=".691" height=".696" x="19.171" y="24.399" fill="gray"/><rect width=".701" height=".696" x="18.236" y="24.399" fill="gray"/><rect width=".701" height=".696" x="21.043" y="24.399" fill="gray"/><rect width=".692" height=".696" x="16.381" y="24.399" fill="gray"/><rect width=".696" height=".696" x="14.519" y="24.399" fill="gray"/><rect width=".692" height=".696" x="12.66" y="24.399" fill="gray"/><rect width=".696" height=".696" x="10.798" y="24.399" fill="gray"/><rect width=".693" height=".696" x="9.868" y="24.399" fill="gray"/><rect width=".696" height=".696" x="8.008" y="24.399" fill="gray"/><rect width=".692" height=".696" x="6.149" y="24.399" fill="gray"/><rect width=".702" height=".696" x="5.212" y="24.399" fill="gray"/><rect width=".699" height=".695" x="21.028" y="23.47" fill="gray"/><rect width=".695" height=".695" x="20.099" y="23.47" fill="gray"/><rect width=".701" height=".695" x="18.236" y="23.47" fill="gray"/><rect width=".692" height=".695" x="16.381" y="23.47" fill="gray"/><rect width=".696" height=".695" x="15.446" y="23.47" fill="gray"/><rect width=".692" height=".695" x="13.588" y="23.47" fill="gray"/><rect width=".692" height=".695" x="12.669" y="23.47" fill="gray"/><rect width=".699" height=".695" x="11.726" y="23.47" fill="gray"/><rect width=".696" height=".695" x="8.936" y="23.47" fill="gray"/><rect width=".699" height=".695" x="7.07" y="23.47" fill="gray"/><rect width=".692" height=".695" x="6.149" y="23.47" fill="gray"/><rect width=".699" height=".695" x="5.224" y="23.47" fill="gray"/><rect width=".692" height=".695" x="9.874" y="23.47" fill="gray"/><rect width=".699" height=".696" x="24.851" y="24.399" fill="gray"/><rect width=".703" height=".696" x="22.987" y="24.399" fill="gray"/><rect width=".701" height=".696" x="22.058" y="24.399" fill="gray"/><rect width=".696" height=".695" x="24.862" y="23.47" fill="gray"/><rect width=".694" height=".695" x="23.92" y="23.47" fill="gray"/><rect width=".7" height=".695" x="22.062" y="23.47" fill="gray"/><rect width=".701" height=".695" x="17.322" y="23.47" fill="gray"/></g><g><radialGradient id="SVGID_7_" cx="-170.919" cy="-101.626" r="7.251" gradientTransform="matrix(0.8712 0.4909 -0.4909 0.8712 129.0184 206.4785)" gradientUnits="userSpaceOnUse"><stop offset=".133" stop-color="#F05A22"/><stop offset="1" stop-color="#EC1C24"/></radialGradient><path fill="url(#SVGID_7_)" d="M34.101,28.004c-0.167-0.114-0.338-0.227-0.518-0.328c-1.127-0.635-2.349-0.93-3.555-0.927 l0.004,7.229L34.101,28.004z"/><radialGradient id="SVGID_8_" cx="-171.117" cy="-102.543" r="6.083" gradientTransform="matrix(0.8712 0.4909 -0.4909 0.8712 129.0184 206.4785)" gradientUnits="userSpaceOnUse"><stop offset="0" stop-color="#F26F21"/><stop offset=".194" stop-color="#F26A21"/><stop offset=".436" stop-color="#F05A22"/><stop offset=".704" stop-color="#EF4123"/><stop offset=".988" stop-color="#EC1E24"/><stop offset="1" stop-color="#EC1C24"/></radialGradient><path fill="url(#SVGID_8_)" d="M30.302,27.027c1.104,0.041,2.186,0.347,3.146,0.888c0.092,0.052,0.184,0.107,0.271,0.164 l-3.413,5.012L30.302,27.027z"/></g><g><radialGradient id="SVGID_9_" cx="-169.654" cy="-100.052" r="7.216" gradientTransform="matrix(0.8712 0.4909 -0.4909 0.8712 129.0184 206.4785)" gradientUnits="userSpaceOnUse"><stop offset="0" stop-color="#F6921E"/><stop offset=".112" stop-color="#F58D1E"/><stop offset=".651" stop-color="#F37720"/><stop offset="1" stop-color="#F26F21"/></radialGradient><path fill="url(#SVGID_9_)" d="M37.169,38.395c1.057-3.051-0.047-6.484-2.764-8.332l-4.068,5.975L37.169,38.395z"/><radialGradient id="SVGID_10_" cx="-169.349" cy="-100.385" r="6.579" gradientTransform="matrix(0.8712 0.4909 -0.4909 0.8712 129.0184 206.4785)" gradientUnits="userSpaceOnUse"><stop offset="0" stop-color="#FBB54C"/><stop offset="1" stop-color="#F6921E"/></radialGradient><path fill="url(#SVGID_10_)" d="M34.476,30.448c2.355,1.74,3.367,4.794,2.52,7.598l-6.23-2.15L34.476,30.448z"/></g><g><radialGradient id="SVGID_11_" cx="-169.625" cy="-98.573" r="7.179" gradientTransform="matrix(0.8712 0.4909 -0.4909 0.8712 129.0184 206.4785)" gradientUnits="userSpaceOnUse"><stop offset="0" stop-color="#96BB33"/><stop offset="1" stop-color="#568A2D"/></radialGradient><path fill="url(#SVGID_11_)" d="M36.388,39.729l-6.832-2.358l-4.068,5.974c0.168,0.113,0.338,0.226,0.518,0.327 c1.127,0.636,2.35,0.931,3.556,0.928c2.522-0.003,4.971-1.324,6.297-3.679C36.076,40.534,36.249,40.134,36.388,39.729z"/><radialGradient id="SVGID_12_" cx="-169.446" cy="-98.302" r="6.699" gradientTransform="matrix(0.8712 0.4909 -0.4909 0.8712 129.0184 206.4785)" gradientUnits="userSpaceOnUse"><stop offset="0" stop-color="#A5CD39"/><stop offset=".035" stop-color="#A3CC39"/><stop offset=".638" stop-color="#8AC540"/><stop offset="1" stop-color="#80C242"/></radialGradient><path fill="url(#SVGID_12_)" d="M26.14,43.434c-0.092-0.052-0.182-0.106-0.271-0.163l3.796-5.573l6.371,2.199 c-0.123,0.319-0.26,0.612-0.416,0.89c-1.229,2.182-3.551,3.537-6.061,3.541C28.362,44.328,27.179,44.02,26.14,43.434 L26.14,43.434z"/></g><g><radialGradient id="SVGID_13_" cx="-171.109" cy="-99.236" r="7.113" gradientTransform="matrix(0.8712 0.4909 -0.4909 0.8712 129.0184 206.4785)" gradientUnits="userSpaceOnUse"><stop offset=".133" stop-color="#00ADEE"/><stop offset="1" stop-color="#0088CF"/></radialGradient><path fill="url(#SVGID_13_)" d="M28.657,28.773c-2.522,0.004-4.972,1.323-6.299,3.678c-0.217,0.388-0.39,0.788-0.531,1.194 c-1.055,3.05,0.049,6.484,2.765,8.331l4.069-5.974L28.657,28.773z"/><radialGradient id="SVGID_14_" cx="-171.439" cy="-99.115" r="6.522" gradientTransform="matrix(0.8712 0.4909 -0.4909 0.8712 129.0184 206.4785)" gradientUnits="userSpaceOnUse"><stop offset="0" stop-color="#6DCEF5"/><stop offset=".165" stop-color="#68CCF5"/><stop offset=".37" stop-color="#58C8F4"/><stop offset=".598" stop-color="#3FC0F2"/><stop offset=".839" stop-color="#1CB5F0"/><stop offset="1" stop-color="#00ADEE"/></radialGradient><path fill="url(#SVGID_14_)" d="M24.522,41.592c-2.43-1.795-3.43-4.985-2.436-7.856c0.146-0.422,0.312-0.797,0.511-1.148 c1.184-2.101,3.383-3.436,5.786-3.534l0.004,6.866L24.522,41.592z"/></g><g><rect width=".513" height=".514" x="15.597" y="28.97" fill="#CCC"/><rect width=".514" height=".514" x="14.909" y="28.97" fill="#CCC"/><rect width=".518" height=".514" x="16.364" y="28.97" fill="#CCC"/><rect width=".511" height=".514" x="13.538" y="28.97" fill="#CCC"/><rect width=".514" height=".514" x="12.164" y="28.97" fill="#CCC"/><rect width=".518" height=".514" x="11.489" y="28.97" fill="#CCC"/><rect width=".516" height=".514" x="9.419" y="28.97" fill="#CCC"/><rect width=".513" height=".514" x="8.732" y="28.97" fill="#CCC"/><rect width=".516" height=".514" x="7.358" y="28.97" fill="#CCC"/><rect width=".512" height=".514" x="5.987" y="28.97" fill="#CCC"/><rect width=".516" height=".514" x="5.3" y="28.97" fill="#CCC"/><rect width=".518" height=".518" x="16.968" y="29.652" fill="#CCC"/><rect width=".51" height=".518" x="16.284" y="29.652" fill="#CCC"/><rect width=".514" height=".518" x="14.909" y="29.652" fill="#CCC"/><rect width=".511" height=".518" x="13.538" y="29.652" fill="#CCC"/><rect width=".513" height=".518" x="10.747" y="29.652" fill="#CCC"/><rect width=".516" height=".518" x="12.849" y="29.652" fill="#CCC"/><rect width=".51" height=".518" x="11.479" y="29.652" fill="#CCC"/><rect width=".515" height=".518" x="10.104" y="29.652" fill="#CCC"/><rect width=".517" height=".518" x="8.043" y="29.652" fill="#CCC"/><rect width=".518" height=".518" x="6.669" y="29.652" fill="#CCC"/><rect width=".512" height=".518" x="5.987" y="29.652" fill="#CCC"/><rect width=".511" height=".518" x="8.737" y="29.652" fill="#CCC"/><rect width=".515" height=".514" x="17.729" y="28.97" fill="#CCC"/><rect width=".516" height=".518" x="17.731" y="29.652" fill="#CCC"/><rect width=".516" height=".518" x="14.235" y="29.652" fill="#CCC"/><rect width=".511" height=".516" x="15.599" y="33.242" fill="#CCC"/><rect width=".518" height=".516" x="14.907" y="33.242" fill="#CCC"/><rect width=".518" height=".516" x="16.979" y="33.242" fill="#CCC"/><rect width=".511" height=".516" x="13.54" y="33.242" fill="#CCC"/><rect width=".516" height=".516" x="12.164" y="33.242" fill="#CCC"/><rect width=".512" height=".516" x="10.794" y="33.242" fill="#CCC"/><rect width=".516" height=".516" x="9.419" y="33.242" fill="#CCC"/><rect width=".513" height=".516" x="8.734" y="33.242" fill="#CCC"/><rect width=".516" height=".516" x="7.36" y="33.242" fill="#CCC"/><rect width=".518" height=".516" x="5.3" y="33.242" fill="#CCC"/><rect width=".514" height=".518" x="16.282" y="33.922" fill="#CCC"/><rect width=".511" height=".518" x="13.54" y="33.922" fill="#CCC"/><rect width=".516" height=".518" x="12.849" y="33.922" fill="#CCC"/><rect width=".513" height=".518" x="11.478" y="33.922" fill="#CCC"/><rect width=".518" height=".518" x="9.429" y="33.922" fill="#CCC"/><rect width=".518" height=".518" x="10.104" y="33.922" fill="#CCC"/><rect width=".515" height=".518" x="8.045" y="33.922" fill="#CCC"/><rect width=".516" height=".518" x="6.671" y="33.922" fill="#CCC"/><rect width=".512" height=".518" x="5.989" y="33.922" fill="#CCC"/><rect width=".516" height=".518" x="5.308" y="33.922" fill="#CCC"/><rect width=".513" height=".518" x="8.737" y="33.922" fill="#CCC"/><rect width=".517" height=".516" x="17.729" y="33.242" fill="#CCC"/><rect width=".517" height=".518" x="17.732" y="33.922" fill="#CCC"/><rect width=".516" height=".518" x="14.235" y="33.922" fill="#CCC"/><rect width=".514" height=".518" x="15.603" y="33.922" fill="#CCC"/><rect width=".511" height=".514" x="15.599" y="37.511" fill="#CCC"/><rect width=".516" height=".514" x="14.907" y="37.511" fill="#CCC"/><rect width=".516" height=".514" x="16.979" y="37.511" fill="#CCC"/><rect width=".513" height=".514" x="13.536" y="37.511" fill="#CCC"/><rect width=".517" height=".514" x="12.162" y="37.511" fill="#CCC"/><rect width=".515" height=".514" x="10.791" y="37.511" fill="#CCC"/><rect width=".516" height=".514" x="9.419" y="37.511" fill="#CCC"/><rect width=".513" height=".514" x="8.732" y="37.511" fill="#CCC"/><rect width=".518" height=".514" x="7.358" y="37.511" fill="#CCC"/><rect width=".514" height=".514" x="5.987" y="37.511" fill="#CCC"/><rect width=".516" height=".514" x="5.3" y="37.511" fill="#CCC"/><rect width=".516" height=".514" x="16.968" y="38.197" fill="#CCC"/><rect width=".511" height=".514" x="16.283" y="38.197" fill="#CCC"/><rect width=".516" height=".514" x="14.907" y="38.197" fill="#CCC"/><rect width=".513" height=".514" x="13.536" y="38.197" fill="#CCC"/><rect width=".516" height=".514" x="12.849" y="38.197" fill="#CCC"/><rect width=".512" height=".514" x="11.478" y="38.197" fill="#CCC"/><rect width=".51" height=".514" x="10.802" y="38.197" fill="#CCC"/><rect width=".515" height=".514" x="10.104" y="38.197" fill="#CCC"/><rect width=".516" height=".514" x="8.044" y="38.197" fill="#CCC"/><rect width=".516" height=".514" x="6.67" y="38.197" fill="#CCC"/><rect width=".514" height=".514" x="5.987" y="38.197" fill="#CCC"/><rect width=".518" height=".514" x="5.306" y="38.197" fill="#CCC"/><rect width=".514" height=".514" x="8.735" y="38.197" fill="#CCC"/><rect width=".516" height=".514" x="17.729" y="37.511" fill="#CCC"/><rect width=".516" height=".514" x="17.731" y="38.197" fill="#CCC"/><rect width=".515" height=".514" x="14.234" y="38.197" fill="#CCC"/><rect width=".513" height=".514" x="15.597" y="42.473" fill="#CCC"/><rect width=".514" height=".514" x="14.909" y="42.473" fill="#CCC"/><rect width=".518" height=".514" x="16.364" y="42.473" fill="#CCC"/><rect width=".511" height=".514" x="13.538" y="42.473" fill="#CCC"/><rect width=".514" height=".514" x="12.164" y="42.473" fill="#CCC"/><rect width=".518" height=".514" x="11.489" y="42.473" fill="#CCC"/><rect width=".516" height=".514" x="9.419" y="42.473" fill="#CCC"/><rect width=".513" height=".514" x="8.732" y="42.473" fill="#CCC"/><rect width=".516" height=".514" x="7.358" y="42.473" fill="#CCC"/><rect width=".512" height=".514" x="5.987" y="42.473" fill="#CCC"/><rect width=".516" height=".514" x="5.3" y="42.473" fill="#CCC"/><rect width=".518" height=".518" x="16.968" y="41.783" fill="#CCC"/><rect width=".51" height=".518" x="16.284" y="41.783" fill="#CCC"/><rect width=".514" height=".518" x="14.909" y="41.783" fill="#CCC"/><rect width=".511" height=".518" x="13.538" y="41.783" fill="#CCC"/><rect width=".513" height=".518" x="10.747" y="41.783" fill="#CCC"/><rect width=".516" height=".518" x="12.849" y="41.783" fill="#CCC"/><rect width=".51" height=".518" x="11.479" y="41.783" fill="#CCC"/><rect width=".515" height=".518" x="10.104" y="41.783" fill="#CCC"/><rect width=".517" height=".518" x="8.043" y="41.783" fill="#CCC"/><rect width=".518" height=".518" x="6.669" y="41.783" fill="#CCC"/><rect width=".512" height=".518" x="5.987" y="41.783" fill="#CCC"/><rect width=".511" height=".518" x="8.737" y="41.783" fill="#CCC"/><rect width=".515" height=".514" x="17.729" y="42.473" fill="#CCC"/><rect width=".516" height=".518" x="17.731" y="41.783" fill="#CCC"/><rect width=".516" height=".518" x="14.235" y="41.783" fill="#CCC"/></g></g><g><linearGradient id="SVGID_15_" x1="7.718" x2="7.718" y1="13.672" y2="5.608" gradientUnits="userSpaceOnUse"><stop offset="0" stop-color="#E0E0E0"/><stop offset=".288" stop-color="#F0F0F0"/><stop offset=".629" stop-color="#FBFBFB"/><stop offset="1" stop-color="#FFF"/></linearGradient><path fill="url(#SVGID_15_)" d="M4.607,6.664c0-0.803,0.397-1.056,1.002-1.056h2.62c1.439,0,2.599,0.748,2.599,2.508 c0,1.441-0.95,2.509-2.609,2.509H6.319v2.146c0,0.539-0.334,0.901-0.855,0.901c-0.522,0-0.856-0.362-0.856-0.901V6.664z M6.319,9.238h1.597c0.688,0,1.2-0.439,1.2-1.122c0-0.792-0.532-1.122-1.377-1.122h-1.42V9.238z"/><linearGradient id="SVGID_16_" x1="14.807" x2="14.807" y1="13.672" y2="5.608" gradientUnits="userSpaceOnUse"><stop offset="0" stop-color="#E0E0E0"/><stop offset=".288" stop-color="#F0F0F0"/><stop offset=".629" stop-color="#FBFBFB"/><stop offset="1" stop-color="#FFF"/></linearGradient><path fill="url(#SVGID_16_)" d="M11.696,6.664c0-0.803,0.396-1.056,1.002-1.056h2.619c1.44,0,2.6,0.748,2.6,2.508 c0,1.441-0.95,2.509-2.609,2.509h-1.9v2.146c0,0.539-0.334,0.901-0.855,0.901s-0.855-0.362-0.855-0.901V6.664z M13.407,9.238 h1.598c0.688,0,1.2-0.439,1.2-1.122c0-0.792-0.532-1.122-1.378-1.122h-1.42V9.238z"/><linearGradient id="SVGID_17_" x1="21.478" x2="21.478" y1="13.672" y2="5.608" gradientUnits="userSpaceOnUse"><stop offset="0" stop-color="#E0E0E0"/><stop offset=".288" stop-color="#F0F0F0"/><stop offset=".629" stop-color="#FBFBFB"/><stop offset="1" stop-color="#FFF"/></linearGradient><path fill="url(#SVGID_17_)" d="M20.622,7.126h-1.618c-0.49,0-0.887-0.264-0.887-0.759s0.396-0.759,0.887-0.759h4.947 c0.491,0,0.888,0.264,0.888,0.759s-0.396,0.759-0.888,0.759h-1.618v5.645c0,0.539-0.334,0.901-0.855,0.901 s-0.855-0.362-0.855-0.901V7.126z"/></g></g></svg>