<svg xmlns="http://www.w3.org/2000/svg" xmlns:xlink="http://www.w3.org/1999/xlink" id="Layer_1" width="43" height="51" x="0" y="0" enable-background="new 0 0 43 51" version="1.1" viewBox="0 0 43 51" xml:space="preserve"><g><g><linearGradient id="SVGID_1_" x1="21.5" x2="21.5" y1="50.766" y2="0" gradientUnits="userSpaceOnUse"><stop offset="0" stop-color="#CCC"/><stop offset=".319" stop-color="#C7C7C7"/><stop offset="1" stop-color="#BFBFBF"/></linearGradient><path fill="url(#SVGID_1_)" d="M3.608,50.766c-1.871,0-3.402-1.531-3.402-3.402V3.402C0.206,1.531,1.737,0,3.608,0 c0,0,14.453,0,20.762,0c2.459,0,3.123,0.49,4.447,1.568c1.779,1.451,3.998,3.809,6.207,5.984c3.729,3.672,7.77,7.324,7.77,10.871 c0,7.213,0,28.939,0,28.939c0,1.871-1.531,3.402-3.402,3.402H3.608z"/><path fill="#DBC18B" d="M12.681,0C7.815,0,3.608,0,3.608,0C1.737,0,0.206,1.531,0.206,3.402v43.961 c0,1.871,1.531,3.402,3.402,3.402h9.072V0z"/><linearGradient id="SVGID_2_" x1="21.5" x2="21.5" y1="49.914" y2=".852" gradientUnits="userSpaceOnUse"><stop offset="0" stop-color="#FFF"/><stop offset=".373" stop-color="#F8F8F8"/><stop offset=".928" stop-color="#E4E4E4"/><stop offset="1" stop-color="#E0E0E0"/></linearGradient><path fill="url(#SVGID_2_)" d="M39.108,16.238H30.89c-1.559,0-2.834-1.275-2.834-2.836V3.162c0-1.559-1.275-2.311-2.834-2.311 H3.892c-1.559,0-2.834,1.275-2.834,2.834V47.08c0,1.559,1.275,2.834,2.834,2.834h35.217c1.559,0,2.834-1.275,2.834-2.834V18.459 C41.942,16.584,40.253,16.238,39.108,16.238z"/><linearGradient id="SVGID_3_" x1="6.677" x2="6.677" y1="49.914" y2=".852" gradientUnits="userSpaceOnUse"><stop offset="0" stop-color="#FFFAD1"/><stop offset=".995" stop-color="#FFEBB9"/></linearGradient><path fill="url(#SVGID_3_)" d="M12.296,0.852H3.892c-1.559,0-2.834,1.275-2.834,2.834V47.08c0,1.559,1.275,2.834,2.834,2.834 h8.404V0.852z"/><rect width="30.129" height="6.117" x="11.813" y="24.497" fill="#EBEBEB"/><rect width="30.129" height="6.617" x="11.813" y="37.372" fill="#EBEBEB"/><path fill="#F3E0B0" d="M12.425,30.614H0.962v-6.117h11.463V30.614z M12.425,37.622H0.962v6.117h11.463V37.622z"/><polygon fill="#F1D498" points="12.681 50.214 12.071 50.214 12.071 17.872 12.681 17.872 12.681 50.214"/><polygon fill="#CCC" points="30.931 49.914 30.321 49.914 30.321 17.572 30.931 17.572 30.931 49.914"/><g><polygon fill="#F1D498" points=".907 24.76 .907 24.15 42.175 24.15 42.175 24.76 .907 24.76"/><polygon fill="#F1D498" points=".907 31.241 .907 30.632 42.175 30.632 42.175 31.241 .907 31.241"/><polygon fill="#F1D498" points=".907 37.724 .907 37.114 42.175 37.114 42.175 37.724 .907 37.724"/><polygon fill="#F1D498" points=".907 44.205 .907 43.596 42.175 43.596 42.175 44.205 .907 44.205"/></g><g><polygon fill="#CCC" points="12.741 24.76 12.741 24.15 42.175 24.15 42.175 24.76 12.741 24.76"/><polygon fill="#CCC" points="12.741 31.241 12.741 30.632 42.175 30.632 42.175 31.241 12.741 31.241"/><polygon fill="#CCC" points="12.741 37.724 12.741 37.114 42.175 37.114 42.175 37.724 12.741 37.724"/><polygon fill="#CCC" points="12.741 44.205 12.741 43.596 42.175 43.596 42.175 44.205 12.741 44.205"/></g><g><linearGradient id="SVGID_4_" x1="21.493" x2="21.493" y1="18.224" y2="0" gradientUnits="userSpaceOnUse"><stop offset="0" stop-color="#599341"/><stop offset="1" stop-color="#69B045"/></linearGradient><path fill="url(#SVGID_4_)" d="M42.78,18.224c-0.146-3.484-4.098-7.068-7.756-10.671c-2.209-2.176-4.428-4.533-6.207-5.984 C27.493,0.49,26.829,0,24.37,0C18.062,0,3.608,0,3.608,0C1.737,0,0.206,1.531,0.206,3.402v14.821H42.78z"/><g><linearGradient id="SVGID_5_" x1="28.924" x2="35.032" y1="13.871" y2="7.762" gradientUnits="userSpaceOnUse"><stop offset="0" stop-color="#DAE8C2"/><stop offset=".883" stop-color="#CADFA6"/><stop offset="1" stop-color="#84C341"/></linearGradient><path fill="url(#SVGID_5_)" d="M42.78,17.973c-0.061-1.941-0.529-3.271-1.861-4.871c-2.947-3.539-8.281-8.176-11.893-11.578 c-1.426-1.34-2.666-1.516-4.561-1.521C24.409,0,24.37,0,24.37,0c2.027,0,3.686,0.447,3.686,2.475v9.428 c0,1.561,1.275,2.836,2.834,2.836h8.219c2.02,0,3.67,1.645,3.684,3.66c0,0.008,0.002,0.016,0.002,0.023c0-0.002,0-0.004,0-0.004 c0,0.002,0,0.004,0,0.006C42.794,18.424,42.8,18.25,42.78,17.973z"/><linearGradient id="SVGID_6_" x1="29.264" x2="35.053" y1="13.531" y2="7.742" gradientUnits="userSpaceOnUse"><stop offset=".258" stop-color="#9FCD60"/><stop offset=".523" stop-color="#9BCC5C"/><stop offset=".794" stop-color="#91C850"/><stop offset="1" stop-color="#84C341"/></linearGradient><path fill="url(#SVGID_6_)" d="M42.78,17.973c-0.061-1.941-0.529-3.271-1.861-4.871c-2.947-3.539-8.281-8.176-11.893-11.578 c-1.426-1.34-2.666-1.516-4.561-1.521C24.409,0,24.37,0,24.37,0c2.027,0,4.27,0.521,4.27,2.834v9.068 c0,1.561,1.484,2.836,3.043,2.836h7.426c2.02,0,3.67,1.645,3.684,3.66c0,0.008,0.002,0.016,0.002,0.023c0-0.002,0-0.004,0-0.004 c0,0.002,0,0.004,0,0.006C42.794,18.424,42.8,18.25,42.78,17.973z"/></g><linearGradient id="SVGID_7_" x1="21.486" x2="21.486" y1="18.224" y2=".852" gradientUnits="userSpaceOnUse"><stop offset="0" stop-color="#69B045"/><stop offset="1" stop-color="#90C73E"/></linearGradient><path fill="url(#SVGID_7_)" d="M41.915,18.224c-0.145-1.655-1.715-1.985-2.807-1.985H30.89c-1.559,0-2.834-1.275-2.834-2.836 V3.162c0-1.559-1.275-2.311-2.834-2.311H3.892c-1.559,0-2.834,1.275-2.834,2.834v14.538H41.915z"/></g></g></g></svg>