<svg xmlns="http://www.w3.org/2000/svg" xmlns:xlink="http://www.w3.org/1999/xlink" id="Layer_1" width="43" height="51" x="0" y="0" enable-background="new 0 0 43 51" version="1.1" viewBox="0 0 43 51" xml:space="preserve"><g><g><linearGradient id="SVGID_1_" x1="21.294" x2="21.294" y1="50.766" y2="0" gradientUnits="userSpaceOnUse"><stop offset="0" stop-color="#CCC"/><stop offset=".319" stop-color="#C7C7C7"/><stop offset="1" stop-color="#BFBFBF"/></linearGradient><path fill="url(#SVGID_1_)" d="M3.402,50.766C1.531,50.766,0,49.234,0,47.363V3.402C0,1.531,1.531,0,3.402,0 c0,0,14.453,0,20.762,0c2.459,0,3.123,0.49,4.447,1.568c1.779,1.451,3.998,3.809,6.207,5.984c3.729,3.672,7.77,7.324,7.77,10.871 c0,7.213,0,28.94,0,28.94c0,1.871-1.531,3.402-3.402,3.402H3.402z"/><linearGradient id="SVGID_2_" x1="21.294" x2="21.294" y1="49.914" y2=".852" gradientUnits="userSpaceOnUse"><stop offset="0" stop-color="#FFF"/><stop offset=".373" stop-color="#F8F8F8"/><stop offset=".928" stop-color="#E4E4E4"/><stop offset="1" stop-color="#E0E0E0"/></linearGradient><path fill="url(#SVGID_2_)" d="M38.902,16.238h-8.219c-1.559,0-2.834-1.275-2.834-2.836V3.162c0-1.559-1.275-2.311-2.834-2.311 H3.686c-1.559,0-2.834,1.275-2.834,2.834V47.08c0,1.559,1.275,2.834,2.834,2.834h35.217c1.559,0,2.834-1.275,2.834-2.834V18.458 C41.736,16.584,40.047,16.238,38.902,16.238z"/><g><linearGradient id="SVGID_3_" x1="21.287" x2="21.287" y1="18.224" y2="0" gradientUnits="userSpaceOnUse"><stop offset="0" stop-color="#008C97"/><stop offset="1" stop-color="#00A7B4"/></linearGradient><path fill="url(#SVGID_3_)" d="M42.574,18.224c-0.147-3.485-4.098-7.069-7.756-10.671c-2.209-2.176-4.428-4.533-6.207-5.984 C27.287,0.49,26.623,0,24.164,0C17.855,0,3.402,0,3.402,0C1.531,0,0,1.531,0,3.402v14.822H42.574z"/><g><linearGradient id="SVGID_4_" x1="28.718" x2="34.827" y1="13.872" y2="7.763" gradientUnits="userSpaceOnUse"><stop offset="0" stop-color="#C1E5EA"/><stop offset=".883" stop-color="#A2DAE2"/><stop offset="1" stop-color="#00BACA"/></linearGradient><path fill="url(#SVGID_4_)" d="M42.574,17.972c-0.061-1.941-0.529-3.271-1.861-4.871C37.766,9.562,32.432,4.926,28.82,1.523 c-1.426-1.34-2.666-1.516-4.561-1.521C24.203,0,24.164,0,24.164,0c2.027,0,3.686,0.447,3.686,2.475v9.428 c0,1.561,1.275,2.836,2.834,2.836h8.219c2.02,0,3.67,1.645,3.684,3.66c0,0.008,0.002,0.016,0.002,0.023c0-0.002,0-0.004,0-0.004 c0,0.002,0,0.004,0,0.006C42.588,18.423,42.594,18.25,42.574,17.972z"/><linearGradient id="SVGID_5_" x1="29.058" x2="34.847" y1="13.532" y2="7.743" gradientUnits="userSpaceOnUse"><stop offset=".258" stop-color="#52C5D7"/><stop offset=".419" stop-color="#4EC4D6"/><stop offset=".585" stop-color="#42C3D4"/><stop offset=".752" stop-color="#2DC0D1"/><stop offset=".919" stop-color="#11BCCD"/><stop offset="1" stop-color="#00BACA"/></linearGradient><path fill="url(#SVGID_5_)" d="M42.574,17.972c-0.061-1.941-0.529-3.271-1.861-4.871C37.766,9.562,32.432,4.926,28.82,1.523 c-1.426-1.34-2.666-1.516-4.561-1.521C24.203,0,24.164,0,24.164,0c2.027,0,4.27,0.521,4.27,2.834v9.068 c0,1.561,1.484,2.836,3.043,2.836h7.426c2.02,0,3.67,1.645,3.684,3.66c0,0.008,0.002,0.016,0.002,0.023c0-0.002,0-0.004,0-0.004 c0,0.002,0,0.004,0,0.006C42.588,18.423,42.594,18.25,42.574,17.972z"/></g><linearGradient id="SVGID_6_" x1="21.28" x2="21.28" y1="18.224" y2=".852" gradientUnits="userSpaceOnUse"><stop offset="0" stop-color="#00A7B4"/><stop offset="1" stop-color="#13BDCE"/></linearGradient><path fill="url(#SVGID_6_)" d="M41.709,18.224c-0.145-1.656-1.715-1.986-2.807-1.986h-8.219c-1.559,0-2.834-1.275-2.834-2.836 V3.162c0-1.559-1.275-2.311-2.834-2.311H3.686c-1.559,0-2.834,1.275-2.834,2.834v14.539H41.709z"/></g><g><linearGradient id="SVGID_7_" x1="21.294" x2="21.294" y1="45.83" y2="22.83" gradientUnits="userSpaceOnUse"><stop offset="0" stop-color="#00A7B4"/><stop offset="1" stop-color="#13BDCE"/></linearGradient><path fill="url(#SVGID_7_)" d="M21.294,22.83c-6.352,0-11.5,5.149-11.5,11.5s5.148,11.5,11.5,11.5s11.5-5.148,11.5-11.5 S27.646,22.83,21.294,22.83z M21.294,43.156c-4.874,0-8.825-3.951-8.825-8.826s3.951-8.825,8.825-8.825s8.825,3.95,8.825,8.825 S26.168,43.156,21.294,43.156z"/><g><linearGradient id="SVGID_8_" x1="21.294" x2="21.294" y1="30.213" y2="23.256" gradientUnits="userSpaceOnUse"><stop offset="0" stop-color="#13BDCE"/><stop offset=".994" stop-color="#BAE3EA"/></linearGradient><path fill="url(#SVGID_8_)" d="M21.294,24.087c4.492,0,8.381,2.5,10.272,6.125c-1.638-4.072-5.621-6.958-10.272-6.958 s-8.635,2.885-10.272,6.958C12.913,26.588,16.802,24.087,21.294,24.087z"/><linearGradient id="SVGID_9_" x1="21.294" x2="21.294" y1="44.414" y2="31.402" gradientUnits="userSpaceOnUse"><stop offset=".012" stop-color="#BAE3EA"/><stop offset=".239" stop-color="#8CD3DF"/><stop offset=".785" stop-color="#13BDCE"/></linearGradient><path fill="url(#SVGID_9_)" d="M11.688,35.164c0,5.1,4.31,9.25,9.606,9.25s9.606-4.15,9.606-9.25 c0-1.34-0.304-2.611-0.838-3.762c0.309,0.922,0.482,1.904,0.482,2.928c0,5.102-4.15,9.25-9.251,9.25s-9.251-4.148-9.251-9.25 c0-1.023,0.174-2.006,0.482-2.928C11.991,32.553,11.688,33.824,11.688,35.164z"/></g><linearGradient id="SVGID_10_" x1="-957.668" x2="-957.668" y1="-244.926" y2="-254.659" gradientTransform="matrix(0 1 -1 0 -227.5 992)" gradientUnits="userSpaceOnUse"><stop offset="0" stop-color="#00A7B4"/><stop offset="1" stop-color="#13BDCE"/></linearGradient><path fill="url(#SVGID_10_)" d="M17.426,29.914c0-0.312,0.229-0.453,0.508-0.314l9.016,4.479c0.279,0.139,0.279,0.365,0,0.504 l-9.016,4.48c-0.279,0.139-0.508-0.004-0.508-0.316V29.914z"/><linearGradient id="SVGID_11_" x1="21.848" x2="21.848" y1="34.248" y2="30.031" gradientUnits="userSpaceOnUse"><stop offset="0" stop-color="#13BDCE"/><stop offset=".994" stop-color="#BAE3EA"/></linearGradient><path fill="url(#SVGID_11_)" d="M25.845,34.004l-7.993-3.973l0.001,4.074c1.12,0.088,2.266,0.143,3.441,0.143 C22.861,34.248,24.381,34.158,25.845,34.004z"/></g></g></g></svg>